<svg width="200" height="200" viewBox="0 0 200 200" fill="none" xmlns="http://www.w3.org/2000/svg">
<path fill-rule="evenodd" clip-rule="evenodd" d="M73.3554 33L179.421 94.2319L179.41 94.2384L179.098 137.231L179.099 137.232L179.097 137.233L179.097 137.235H179.093L126.066 167.848L20 106.616L73.0001 76.019V73.6161L38.0001 53.4106L73.3554 33ZM73.3554 37.9997L170.761 94.2319L144.066 109.643L46.6605 53.4106L73.3554 37.9997ZM77.8664 76.4255L77.7762 78.7382L174.4 134.519V97.1309L144.066 114.643L77.8664 76.4255ZM73.0325 81H73.0336L170.439 137.232L126.066 162.848L28.6604 106.616L73.0325 81Z" fill="white"/>
</svg>
